<svg xmlns="http://www.w3.org/2000/svg" xmlns:xlink="http://www.w3.org/1999/xlink" version="1.1" x="0px" y="0px" viewBox="0 0 90 112.5" enable-background="new 0 0 90 90" xml:space="preserve"><path fill="#000000" d="M76.991,66.016H13.944V45.001h63.047V66.016z M24.451,50.256h-5.254v10.505h5.254V50.256z M32.333,50.256  h-5.254v10.505h5.254V50.256z M40.214,50.256h-5.255v10.505h5.255V50.256z M71.736,50.256h-5.253v10.505h5.253V50.256z   M55.975,50.256h-5.254v10.505h5.254V50.256z M61.228,60.761h-2.625v2.629h2.625V60.761z M48.095,60.761h-2.626v2.629h2.626V60.761z  "/><path fill="#000000" d="M76.991,42.374H13.944V21.358h63.047V42.374z M24.451,26.611h-5.254V37.12h5.254V26.611z M32.333,26.611  h-5.254V37.12h5.254V26.611z M40.214,26.611h-5.255V37.12h5.255V26.611z M71.736,26.611h-5.253V37.12h5.253V26.611z M55.975,26.611  h-5.254V37.12h5.254V26.611z"/><rect x="58.603" y="37.12" fill="#000000" width="2.625" height="2.625"/><rect x="45.469" y="37.12" fill="#000000" width="2.626" height="2.625"/><polygon fill="#000000" points="66.483,0.342 24.451,0.342 13.944,18.731 76.991,18.731 "/><rect x="42.841" y="68.643" fill="#000000" width="5.254" height="7.88"/><rect x="6.063" y="81.778" fill="#000000" width="31.523" height="5.253"/><rect x="53.348" y="81.778" fill="#000000" width="31.524" height="5.253"/><circle fill="#000000" cx="45.467" cy="84.405" r="5.253"/><text x="0" y="105" fill="#000000" font-size="5px" font-weight="bold" font-family="'Helvetica Neue', Helvetica, Arial-Unicode, Arial, Sans-serif">Created by herrreiprich</text><text x="0" y="110" fill="#000000" font-size="5px" font-weight="bold" font-family="'Helvetica Neue', Helvetica, Arial-Unicode, Arial, Sans-serif">from the Noun Project</text></svg>