<svg xmlns="http://www.w3.org/2000/svg" xmlns:xlink="http://www.w3.org/1999/xlink" version="1.1" x="0px" y="0px" viewBox="0 0 100 125" enable-background="new 0 0 100 100" xml:space="preserve"><path d="M90.799,79.055C86.131,63,77.509,62.447,75.653,62.014c-0.215-0.05-0.434-0.097-0.653-0.139  c-5.632-5.204-1.788-26.929-1.788-26.929c0-33.116-22.399-29.858-22.399-29.858C50.538,5.073,50.268,5.062,50,5.053  c-0.268,0.009-0.538,0.02-0.812,0.035c0,0-22.4-3.258-22.4,29.858c0,0,3.844,21.725-1.788,26.929  c-0.22,0.042-0.438,0.089-0.653,0.139C22.49,62.447,13.868,63,9.2,79.055c-0.631,2.182-0.409,4.551,0.62,6.494  C13.643,92.778,33.749,95.003,50,95c16.252,0.004,36.357-2.222,40.18-9.45C91.208,83.606,91.43,81.237,90.799,79.055z M67.76,33.551  c0.066,0.012,0.13,0.033,0.191,0.062c0.843,0.394,1.203,2.357,0.802,4.597c-0.306,1.718-0.977,3.133-1.691,3.738  c-0.284,0.241-0.576,0.354-0.854,0.305c-0.157-0.027-0.301-0.104-0.429-0.224c-1.573,4.891-4.58,9.764-8.374,12.693  c-2.214,1.709-4.696,2.757-7.319,2.757c-2.639,0-5.136-1.061-7.36-2.789c-3.774-2.932-6.766-7.788-8.332-12.661  c-0.128,0.119-0.271,0.196-0.428,0.224c-0.324,0.057-0.666-0.105-0.993-0.433c-0.662-0.662-1.268-2.003-1.555-3.61  c-0.378-2.114-0.078-3.982,0.666-4.517c0.102-0.073,0.211-0.122,0.328-0.142c0.268-0.046,0.547,0.056,0.821,0.277v0.001v0  c0-0.001,0.002-0.024,0.007-0.066c0.094-0.919,1.318-11.218,9.026-10.504l23.579,12.137 M64.44,62.531  c-2.027,2.593-7.725,6.336-14.439,6.336c-6.716,0-12.413-3.743-14.441-6.336c-0.432-0.553-0.701-1.138-0.773-1.744  c0-0.001,0-0.001,0-0.001c0.102-0.034,0.335-0.117,0.64-0.256c0.126-0.058,0.264-0.124,0.409-0.2  c1.227-0.643,3.031-1.989,3.032-4.353c0.001-0.001,0.001-0.001,0.002-0.001c1.938,1.921,4.093,3.441,6.395,4.354  c1.548,0.614,3.163,0.954,4.822,0.954c1.66,0,3.274-0.34,4.823-0.954c2.28-0.904,4.416-2.405,6.34-4.301  c0.014,0.006,0.026,0.012,0.039,0.018c0.048,3.047,3.104,4.382,3.932,4.688c-0.002,0.018-0.003,0.035-0.005,0.053  C65.142,61.393,64.873,61.978,64.44,62.531z"/><text x="0" y="115" fill="#000000" font-size="5px" font-weight="bold" font-family="'Helvetica Neue', Helvetica, Arial-Unicode, Arial, Sans-serif">Created by Wilson Joseph</text><text x="0" y="120" fill="#000000" font-size="5px" font-weight="bold" font-family="'Helvetica Neue', Helvetica, Arial-Unicode, Arial, Sans-serif">from the Noun Project</text></svg>