<svg xmlns="http://www.w3.org/2000/svg" xmlns:xlink="http://www.w3.org/1999/xlink" version="1.1" x="0px" y="0px" viewBox="0 0 100 125" enable-background="new 0 0 100 100" xml:space="preserve"><g><g><path fill="#000000" d="M21.4,97.7c-1.1,0-2.1-0.6-2.6-1.7l-4.5-10.8L3.9,83.3c-0.7-0.1-1.4-0.6-1.8-1.2c-0.4-0.6-0.6-1.4-0.4-2.2    l4.2-19.1c0.2-1,1-1.8,2-2.1c1-0.3,2.1,0.1,2.8,0.9l7.3,8.4l6.1,0.2c1.5,0.1,2.7,1.3,2.7,2.9c-0.1,1.5-1.4,2.7-2.9,2.7l-7.3-0.3    c-0.8,0-1.5-0.4-2-0.9l-4.5-5.1L7.8,78.3l9.1,1.6c0.9,0.2,1.7,0.8,2.1,1.7l5,12.2c0.6,1.4-0.1,3.1-1.5,3.6    C22.1,97.6,21.8,97.7,21.4,97.7z"/></g><g><path fill="#000000" d="M78.6,97.7c-0.4,0-0.7-0.1-1.1-0.2c-1.4-0.6-2.1-2.2-1.5-3.6l5-12.2c0.4-0.9,1.2-1.5,2.1-1.7l9.1-1.6    l-2.4-10.9l-4.5,5.1c-0.5,0.6-1.2,0.9-2,0.9l-7.3,0.3c-1.5,0-2.8-1.1-2.9-2.7c-0.1-1.5,1.1-2.8,2.7-2.9l6.1-0.2l7.3-8.4    c0.7-0.8,1.8-1.1,2.8-0.9c1,0.3,1.8,1.1,2,2.1l4.2,19.1c0.2,0.7,0,1.5-0.4,2.2s-1.1,1.1-1.8,1.2l-10.4,1.9l-4.5,10.8    C80.7,97,79.7,97.7,78.6,97.7z"/></g><g><circle fill="#000000" cx="10.5" cy="51.4" r="4.5"/></g><g><circle fill="#000000" cx="89.7" cy="51.4" r="4.5"/></g><g><circle fill="#000000" cx="49.5" cy="51.4" r="4.5"/></g><g><path fill="#000000" d="M45.9,98.3c-1.5,0-2.8-1.2-2.8-2.8V81.7c0-1.5,1.2-2.8,2.8-2.8c1.5,0,2.8,1.2,2.8,2.8v13.8    C48.7,97.1,47.4,98.3,45.9,98.3z"/></g><g><path fill="#000000" d="M52.8,98.3c-1.5,0-2.8-1.2-2.8-2.8V81.7c0-1.5,1.2-2.8,2.8-2.8s2.8,1.2,2.8,2.8v13.8    C55.6,97.1,54.3,98.3,52.8,98.3z"/></g><path fill="#000000" d="M87.3,75.3H54.9l-1.2-11.1h0l1,5.8c0.2,0.9,0.8,1.7,1.7,2.1c0.9,0.4,1.9,0.3,2.7-0.3l6.1-4.2   c1.3-0.9,1.6-2.6,0.7-3.9c-0.9-1.3-2.6-1.6-3.9-0.7l-2.5,1.7L58.8,61c-0.2-1.3-1.4-2.3-2.7-2.3H43.3c-1.3,0-2.5,0.9-2.7,2.2   L38,73.6c-0.1,0.6,0,1.2,0.2,1.7H12.9c-0.8,0-1.4,0.6-1.4,1.4s0.6,1.4,1.4,1.4h74.4c0.8,0,1.4-0.6,1.4-1.4S88,75.3,87.3,75.3z    M43.5,74.7l2.1-10.5h0.1l-1.5,11.1h-0.9C43.4,75.1,43.5,74.9,43.5,74.7z"/><g><path fill="#000000" d="M76.2,47.1c-0.9,0-1.6-0.7-1.6-1.6c0-0.9,0.7-1.6,1.6-1.6s1.6,0.7,1.6,1.6C77.8,46.4,77.1,47.1,76.2,47.1z     M76.2,44.7c-0.4,0-0.8,0.4-0.8,0.8s0.4,0.8,0.8,0.8S77,46,77,45.5S76.6,44.7,76.2,44.7z"/></g><g><path fill="#000000" d="M42.4,43.9c-0.9,0-1.6-0.7-1.6-1.6c0-0.9,0.7-1.6,1.6-1.6c0.9,0,1.6,0.7,1.6,1.6    C44,43.1,43.2,43.9,42.4,43.9z M42.4,41.5c-0.4,0-0.8,0.4-0.8,0.8c0,0.4,0.4,0.8,0.8,0.8c0.4,0,0.8-0.4,0.8-0.8    C43.2,41.8,42.8,41.5,42.4,41.5z"/></g><g><path fill="#000000" d="M77.7,50.9c-0.7,0-1.2-0.5-1.2-1.2c0-0.7,0.5-1.2,1.2-1.2s1.2,0.5,1.2,1.2C78.9,50.4,78.3,50.9,77.7,50.9z     M77.7,49.1c-0.3,0-0.6,0.3-0.6,0.6c0,0.3,0.3,0.6,0.6,0.6c0.3,0,0.6-0.3,0.6-0.6C78.3,49.4,78,49.1,77.7,49.1z"/></g><g><path fill="#000000" d="M40.8,46.7c-0.7,0-1.2-0.5-1.2-1.2s0.5-1.2,1.2-1.2s1.2,0.5,1.2,1.2S41.4,46.7,40.8,46.7z M40.8,44.9    c-0.3,0-0.6,0.3-0.6,0.6c0,0.3,0.3,0.6,0.6,0.6c0.3,0,0.6-0.3,0.6-0.6C41.4,45.2,41.1,44.9,40.8,44.9z"/></g><g><path fill="#000000" d="M81,53.7c-0.5,0-1-0.4-1-1c0-0.5,0.4-1,1-1s1,0.4,1,1C82,53.3,81.6,53.7,81,53.7z M81,52.3    c-0.3,0-0.5,0.2-0.5,0.5c0,0.3,0.2,0.5,0.5,0.5c0.3,0,0.5-0.2,0.5-0.5C81.5,52.5,81.3,52.3,81,52.3z"/></g><g><path fill="#000000" d="M41.7,50.7c-0.5,0-1-0.4-1-1c0-0.5,0.4-1,1-1c0.5,0,1,0.4,1,1C42.6,50.2,42.2,50.7,41.7,50.7z M41.7,49.2    c-0.3,0-0.5,0.2-0.5,0.5c0,0.3,0.2,0.5,0.5,0.5s0.5-0.2,0.5-0.5C42.1,49.5,41.9,49.2,41.7,49.2z"/></g><g><g><path fill="#000000" d="M27.2,45.1c-0.9,0-1.6-0.7-1.6-1.6c0-0.9,0.7-1.6,1.6-1.6c0.9,0,1.6,0.7,1.6,1.6     C28.8,44.3,28.1,45.1,27.2,45.1z M27.2,42.7c-0.4,0-0.8,0.4-0.8,0.8s0.4,0.8,0.8,0.8c0.4,0,0.8-0.4,0.8-0.8S27.7,42.7,27.2,42.7z     "/></g><g><path fill="#000000" d="M25.7,48.8c-0.7,0-1.2-0.5-1.2-1.2s0.5-1.2,1.2-1.2s1.2,0.5,1.2,1.2S26.4,48.8,25.7,48.8z M25.7,47.1     c-0.3,0-0.6,0.3-0.6,0.6c0,0.3,0.3,0.6,0.6,0.6c0.3,0,0.6-0.3,0.6-0.6C26.3,47.3,26,47.1,25.7,47.1z"/></g><g><path fill="#000000" d="M22.4,51.7c-0.5,0-1-0.4-1-1c0-0.5,0.4-1,1-1c0.5,0,1,0.4,1,1C23.3,51.3,22.9,51.7,22.4,51.7z M22.4,50.2     c-0.3,0-0.5,0.2-0.5,0.5c0,0.3,0.2,0.5,0.5,0.5s0.5-0.2,0.5-0.5C22.9,50.5,22.6,50.2,22.4,50.2z"/></g></g><g><path fill="#000000" d="M50.8,35.9c-2,0-3.9-0.6-5.5-1.8c-1.3,1-2.9,1.5-4.6,1.5c-4.1,0-7.5-3.3-7.6-7.3    c-4.6-1.5-7.8-5.8-7.8-10.7c0-6.2,5-11.2,11.2-11.2c0.6,0,1.1,0,1.7,0.1c2.1-3.1,5.5-4.9,9.3-4.9c3.2,0,6.2,1.3,8.3,3.7    C56.4,5.1,57.1,5,57.8,5c4.3,0,7.8,3.5,7.8,7.8c4.1,1.1,7,4.9,7,9.2c0,5.3-4.3,9.5-9.5,9.5c-1.3,0-2.7-0.3-3.9-0.8    C57.7,33.9,54.4,35.9,50.8,35.9z M45.2,32.3c0.2,0,0.4,0.1,0.5,0.2c1.4,1.2,3.2,1.8,5,1.8c3.3,0,6.1-2,7.4-5    c0.1-0.2,0.3-0.4,0.5-0.5c0.2-0.1,0.5-0.1,0.7,0.1c1.2,0.7,2.5,1,3.9,1c4.4,0,7.9-3.6,7.9-7.9c0-3.8-2.7-7.1-6.4-7.8    c-0.4-0.1-0.7-0.4-0.6-0.8c0-0.2,0-0.4,0-0.5c0-3.4-2.8-6.2-6.2-6.2c-0.7,0-1.4,0.1-2.1,0.4c-0.3,0.1-0.7,0-0.9-0.2    c-1.8-2.2-4.5-3.5-7.4-3.5C44,3.3,41,5,39.2,7.9c-0.2,0.3-0.5,0.4-0.8,0.4c-0.6-0.1-1.3-0.2-1.9-0.2c-5.3,0-9.6,4.3-9.6,9.6    c0,4.4,3,8.2,7.2,9.3c0.4,0.1,0.6,0.4,0.6,0.8c0,0.1,0,0.2,0,0.3c0,3.3,2.7,6,6,6c1.5,0,2.9-0.6,4-1.6    C44.9,32.4,45.1,32.3,45.2,32.3z"/></g></g><text x="0" y="115" fill="#000000" font-size="5px" font-weight="bold" font-family="'Helvetica Neue', Helvetica, Arial-Unicode, Arial, Sans-serif">Created by Jessica Lock</text><text x="0" y="120" fill="#000000" font-size="5px" font-weight="bold" font-family="'Helvetica Neue', Helvetica, Arial-Unicode, Arial, Sans-serif">from the Noun Project</text></svg>