<svg xmlns="http://www.w3.org/2000/svg" xmlns:xlink="http://www.w3.org/1999/xlink" version="1.1" x="0px" y="0px" viewBox="0 0 96 120" enable-background="new 0 0 96 96" xml:space="preserve"><path d="M82,56c4.244,0,8.084,1.536,11.168,3.996l-5.645-42.62C86.516,9.752,79.952,4,72.26,4H23.716  C16.044,4,9.48,9.736,8.456,17.34l-5.76,42.768C5.796,57.58,9.7,56,14.004,56H82z M33.808,18.792  c0.784-0.78,2.048-0.776,2.828,0.008c0.776,0.78,0.772,2.048-0.008,2.828c-3.032,3.016-4.708,7.028-4.72,11.3  c-0.012,4.272,1.64,8.296,4.656,11.324c6.22,6.252,16.368,6.275,22.624,0.064c3.033-3.016,4.713-7.028,4.721-11.3  c0.016-4.056-1.516-7.848-4.24-10.82l-0.477,5.928c-0.084,1.048-0.955,1.84-1.991,1.84c-0.052,0-0.104,0-0.164-0.004  c-1.097-0.088-1.916-1.052-1.832-2.156l0.8-9.968c0.088-1.096,1.02-1.916,2.156-1.832l9.968,0.796  c1.097,0.084,1.916,1.052,1.832,2.152c-0.088,1.1-1.032,1.912-2.155,1.836l-4.437-0.356c2.899,3.568,4.552,7.936,4.54,12.592  c-0.016,5.34-2.108,10.36-5.9,14.124c-3.9,3.875-9,5.808-14.1,5.808c-5.14,0-10.276-1.96-14.18-5.884  c-3.768-3.788-5.832-8.816-5.82-14.156C27.924,27.576,30.02,22.56,33.808,18.792z"/><path d="M81,76c0,1.105-0.895,2-2,2s-2-0.895-2-2s0.895-2,2-2S81,74.895,81,76z"/><path d="M82,60H14C6.28,60,0,66.28,0,74v4c0,7.721,6.28,14,14,14h68c7.721,0,14-6.279,14-14v-4C96,66.28,89.721,60,82,60z M79,82  c-3.309,0-6-2.691-6-6s2.691-6,6-6s6,2.691,6,6S82.309,82,79,82z"/><text x="0" y="111" fill="#000000" font-size="5px" font-weight="bold" font-family="'Helvetica Neue', Helvetica, Arial-Unicode, Arial, Sans-serif">Created by iconsmind.com</text><text x="0" y="116" fill="#000000" font-size="5px" font-weight="bold" font-family="'Helvetica Neue', Helvetica, Arial-Unicode, Arial, Sans-serif">from the Noun Project</text></svg>