<svg xmlns="http://www.w3.org/2000/svg" xmlns:xlink="http://www.w3.org/1999/xlink" version="1.1" x="0px" y="0px" viewBox="0 0 100 125" enable-background="new 0 0 100 100" xml:space="preserve"><g><rect x="11.094" y="18.19" width="8.31" height="1.684"/><rect x="11.094" y="20.961" width="31.575" height="1.685"/><rect x="11.094" y="26.716" width="58.167" height="5.886"/><rect x="11.094" y="36.84" width="43.763" height="1.686"/><rect x="11.094" y="39.425" width="56.689" height="1.687"/><rect x="11.094" y="47.779" width="16.249" height="13.479"/><rect x="11.094" y="63.431" width="13.295" height="1.685"/><rect x="11.094" y="67.308" width="9.847" height="1.686"/><rect x="30.914" y="47.779" width="16.25" height="13.479"/><rect x="30.914" y="63.431" width="13.294" height="1.685"/><rect x="30.914" y="67.308" width="9.848" height="1.686"/><path d="M50.731,65.115h0.479c0.171-0.573,0.378-1.131,0.59-1.685h-1.068V65.115z"/><path d="M85.975,80.231L82.507,83.7v-0.004c-0.115,0.119-0.115,0.309,0,0.427c0.121,0.119,0.312,0.119,0.428,0l3.468-3.468   c0.115-0.115,0.115-0.306,0-0.424C86.281,80.116,86.097,80.116,85.975,80.231z"/><path d="M74.319,51.36c-11.42,0-20.682,9.258-20.682,20.68c0,11.423,9.262,20.682,20.682,20.682C85.738,92.722,95,83.463,95,72.04   C95,60.618,85.738,51.36,74.319,51.36z M77.683,60.583c1.506-1.51,3.659-2,5.581-1.466l-2.955,2.954   c-0.808,0.805-0.808,2.106,0,2.911l1.067,1.068c0.803,0.805,2.105,0.805,2.908,0l2.955-2.954c0.536,1.923,0.046,4.069-1.466,5.579   c-1.512,1.512-3.659,2.002-5.586,1.47l-1.269,1.274c-0.018-0.083-0.029-0.171-0.029-0.243l-0.012-0.522l-0.427-0.299   c-0.237-0.168-0.503-0.286-0.773-0.375c0.213-0.369,0.184-0.849-0.134-1.166c-0.38-0.376-0.985-0.376-1.362,0l-0.489,0.487   l-1.304-1.307l1.822-1.829C75.682,64.244,76.166,62.099,77.683,60.583z M61.371,59.481c0.074-0.08,0.126-0.128,0.155-0.159   c0,0,0,0,0.069-0.069c0.034-0.034,0.086-0.084,0.162-0.158c0.226-0.229,0.656-0.206,0.656-0.206s2.044,1.138,2.604,1.559   c0.398,0.442,1.396,2.441,1.396,2.441l6.301,6.299c0,0,0.248-0.296,0.456-0.457c0.224-0.089,0.473-0.023,0.473-0.023l1.639,1.64   l-1.408,1.408h-0.005l-1.247,1.251l-1.638-1.637c0,0-0.064-0.249,0.022-0.478c0.161-0.205,0.456-0.453,0.456-0.453l-6.296-6.298   c0,0-2.003-0.998-2.446-1.399c-0.421-0.557-1.558-2.603-1.558-2.603S61.146,59.709,61.371,59.481z M70.95,83.498   c-1.508,1.511-3.659,2.001-5.581,1.469l2.954-2.959c0.809-0.801,0.809-2.105,0-2.907l-1.066-1.068   c-0.803-0.805-2.107-0.805-2.909,0l-2.954,2.955c-0.536-1.925-0.046-4.071,1.465-5.582c1.513-1.513,3.66-2,5.58-1.467l1.83-1.829   l1.31,1.307l-0.397,0.397c-0.382,0.379-0.382,0.991,0,1.365c0.287,0.288,0.708,0.353,1.06,0.199c0.094,0.28,0.215,0.549,0.388,0.8   l0.307,0.43l0.519,0.009c0.075,0,0.156,0.012,0.243,0.026l-1.276,1.274C72.951,79.842,72.461,81.988,70.95,83.498z M86.863,83.068   l-1.517,1.523c-0.808,0.805-2.106,0.805-2.915,0l-2.787-2.791c-0.005-1.134-0.79-2.7-2.152-4.062   c-1.344-1.344-2.891-2.13-4.021-2.148c-0.56-0.806-0.484-1.92,0.236-2.635l1.523-1.525c0.716-0.718,1.829-0.794,2.631-0.231   c0.023,1.131,0.809,2.674,2.152,4.015c1.362,1.362,2.926,2.153,4.062,2.153l2.787,2.793C87.672,80.965,87.672,82.266,86.863,83.068   z"/><rect x="11.094" y="75.248" width="36.992" height="1.686"/><path d="M66.981,49.057v-1.277h-16.25v13.479h2.024C55.644,55.493,60.756,51.042,66.981,49.057z"/><polygon points="6.477,13.681 74.923,13.681 74.923,47.981 76.401,47.981 76.401,7.278 5,7.278 5,83.602 52.775,83.602    52.775,82.124 6.477,82.124  "/></g><text x="0" y="115" fill="#000000" font-size="5px" font-weight="bold" font-family="'Helvetica Neue', Helvetica, Arial-Unicode, Arial, Sans-serif">Created by Yamini Ahluwalia</text><text x="0" y="120" fill="#000000" font-size="5px" font-weight="bold" font-family="'Helvetica Neue', Helvetica, Arial-Unicode, Arial, Sans-serif">from the Noun Project</text></svg>