<svg xmlns:rdf="http://www.w3.org/1999/02/22-rdf-syntax-ns#" xmlns="http://www.w3.org/2000/svg" xmlns:cc="http://creativecommons.org/ns#" xmlns:dc="http://purl.org/dc/elements/1.1/" version="1.1" viewBox="0 0 100 125" x="0px" y="0px"><path style="baseline-shift:baseline;block-progression:tb;color:#000000;direction:ltr;text-indent:0;enable-background:accumulate;text-transform:none;" fill="#000" d="M51,5.125c-11.9,0.1631-23.488,5.532-31.312,15.281-0.243-0.012-0.474-0.031-0.719-0.031-7.686,0-13.969,6.283-13.969,13.969,0,4.649,2.2958,8.77,5.812,11.312-0.096,13.406,6.225,26.59,18.219,34.469,2.869,1.885,5.916,3.249,9.031,4.281,1.568,5.997,7.028,10.469,13.5,10.469,6.508,0,11.998-4.516,13.532-10.563,8.078-2.819,15.361-8.076,20.437-15.718l5.594,3.687,0.656-12.781,0.688-12.75-11.375,5.812-11.375,5.782,6,3.937c-3.286,4.89-7.813,8.382-12.844,10.5-2.54-3.531-6.652-5.843-11.313-5.843-4.666,0-8.835,2.304-11.374,5.843-1.613-0.64-3.208-1.413-4.719-2.406-8.003-5.257-12.528-13.677-13.094-22.5,6.053-1.529,10.563-7.019,10.563-13.531,0-3.059-1.006-5.881-2.688-8.188,9.529-10.263,25.163-12.553,37.281-4.594,0.113,0.074,0.204,0.172,0.313,0.25-0.503,1.438-0.782,2.99-0.782,4.594,0,7.686,6.283,13.969,13.969,13.969s13.969-6.283,13.969-13.969-6.283-13.968-13.969-13.968c-1.768,0-3.471,0.332-5.031,0.937-0.664-0.547-1.338-1.056-2.062-1.531-7.056-4.6345-15.058-6.827-22.938-6.719zm30.031,11.969c5.17,0,9.313,4.142,9.313,9.312,0,2.31-0.843,4.41-2.219,6.032-0.516-0.583-1.109-0.839-1.656-0.969-0.907-0.982-0.688-4.844-0.688-4.844,0.012-0.065,0.024-0.121,0.031-0.187,0,0,1.236-4.217-2.062-5.719,0,0-0.606-0.139-1.062-0.031-0.314-0.077-0.621-0.126-0.907-0.126-0.084,0-0.142,0.026-0.219,0.032-0.078-0.006-0.169-0.032-0.25-0.032-0.36,0-0.754,0.067-1.156,0.188l-0.031,0.031c-1.067,0.373-2.881,1.794-2.594,4.625-0.008,0.01-0.024,0.022-0.031,0.032-0.297,0.373-0.246,0.884-0.156,1.312,0.025,0.882,0.083,3.377-0.156,4.625-0.082,0.017-0.173,0.017-0.25,0.031-0.784,0.14-1.732,0.478-2.407,1.688-1.737-1.688-2.812-4.054-2.812-6.688,0-5.17,4.142-9.312,9.312-9.312zm2.438,6.562c0.127,0.356,0.494,1.246,1.093,1.938v0.812l0.188-0.625c0.006,0.005,0.026,0.026,0.031,0.031-0.001,0.006,0.001,0.026,0,0.032,0.092,0.088,0.212,0.144,0.313,0.218,0.015,0.13-0.028,0.341-0.094,0.626-0.222,0.957-0.598,1-0.688,1,0,0-0.049,0.907-0.874,1.874v0.032c-0.643,0.654-1.312,0.962-1.969,0.937-0.818-0.034-1.461-0.599-1.781-0.937-0.843-0.977-0.876-1.906-0.876-1.906h-0.031c-0.049,0-0.194-0.014-0.343-0.188l-0.157-0.281c-0.065-0.138-0.134-0.301-0.187-0.531-0.12-0.519-0.088-0.73,0-0.813,0.179,0.012,0.356,0.006,0.531,0l0.219,1.187,0.25-1.218c0.246-0.031,0.484-0.067,0.718-0.125,1.008-0.251,1.892-0.761,2.563-1.219,0.494-0.337,0.872-0.64,1.094-0.844zm-64.5,1.375c5.17,0,9.312,4.143,9.312,9.313,0,2.714-1.136,5.147-2.969,6.844-0.59-1.027-1.386-1.394-2.093-1.563-0.907-0.982-0.688-4.844-0.688-4.844,0.012-0.064,0.024-0.152,0.031-0.219,0,0,1.236-4.185-2.062-5.687,0,0-0.606-0.139-1.062-0.031-0.314-0.076-0.621-0.125-0.907-0.125-0.084,0-0.142-0.006-0.219,0-0.078-0.006-0.169,0-0.25,0-0.36,0-0.754,0.067-1.156,0.187h-0.031c-1.067,0.373-2.881,1.794-2.594,4.625-0.008,0.01,0.007,0.022,0,0.031-0.297,0.374-0.277,0.885-0.187,1.313,0.025,0.882,0.083,3.377-0.156,4.625-0.082,0.017-0.173,0.048-0.25,0.062-0.57,0.102-1.207,0.31-1.782,0.876-1.402-1.629-2.2498-3.76-2.2498-6.094,0-5.17,4.1428-9.313,9.3128-9.313zm64.437,5.5c0.003,0.263,0.016,0.5,0.063,0.625,0.151,0.406,1.883,0.842,2.593,0.969,0.441,0.079,0.919,0.212,1.376,0.656-2.015,0.709-3.805,1.017-5.376,1.094l-0.468,0.469-0.469-0.438c-3.423-0.022-5.465-1.123-5.469-1.125,0.457-0.444,0.966-0.577,1.406-0.656,0.71-0.127,2.443-0.563,2.594-0.969,0.047-0.122,0.06-0.338,0.063-0.594,0.434,0.326,1.019,0.626,1.719,0.657,0.038,0.002,0.086,0,0.124,0,0.632,0,1.252-0.235,1.844-0.688zm-63.187,1.25c0.127,0.356,0.494,1.246,1.093,1.938v0.843l0.188-0.624c0.006,0.004,0.026-0.006,0.031,0-0.001,0.005,0.001,0.025,0,0.031,0.092,0.088,0.212,0.176,0.313,0.25,0.015,0.13,0.003,0.309-0.063,0.593-0.222,0.958-0.598,1.032-0.687,1.032h-0.032s-0.049,0.876-0.874,1.844v0.031c-0.643,0.654-1.312,0.993-1.969,0.969-0.818-0.035-1.461-0.6-1.781-0.938-0.001-0.005,0-0.026,0-0.031-0.843-0.977-0.876-1.875-0.876-1.875h-0.031c-0.049,0-0.194-0.014-0.343-0.188l-0.157-0.281c-0.065-0.138-0.134-0.332-0.187-0.563-0.12-0.518-0.056-0.729,0.031-0.812,0.179,0.012,0.325,0.037,0.5,0.031l0.25,1.157,0.219-1.219c0.246-0.031,0.484-0.067,0.718-0.125,1.008-0.251,1.892-0.73,2.563-1.188,0.494-0.337,0.872-0.671,1.094-0.875zm32.969,0.125l-4.907,27.5h1.344l4.906-27.5h-1.343zm-7,5.594l-10.969,7.812v2.063l10.969,7.813v-2.594l-8.969-6.25,8.969-6.282v-2.562zm9.968,0v2.562l8.969,6.282-8.969,6.25v2.594l10.969-7.813v-2.063l-10.969-7.812zm-36,1.188c0.003,0.263,0.016,0.5,0.063,0.624,0.151,0.406,1.883,0.842,2.593,0.969,0.441,0.079,0.95,0.213,1.407,0.657-2.015,0.708-3.836,1.017-5.407,1.093l-0.468,0.469-0.469-0.469c-3.423-0.022-5.433-1.091-5.437-1.093,0.456-0.444,0.934-0.578,1.374-0.657,0.71-0.126,2.443-0.563,2.594-0.969,0.047-0.121,0.06-0.338,0.063-0.593,0.434,0.326,1.019,0.625,1.719,0.656,0.038,0.002,0.086,0,0.124,0,0.632,0,1.252-0.235,1.844-0.687zm31.406,32.906c5.17,0,9.313,4.142,9.313,9.312,0,2.69-1.134,5.087-2.937,6.782-0.538-0.426-1.141-0.596-1.657-0.688-0.796-0.143-1.773-0.432-2.125-0.625-0.011-0.16-0.032-0.501,0-1.031,0.02-0.022,0.043-0.04,0.063-0.063,0.471-0.631,0.68-1.224,0.781-1.625,0.304-0.214,0.625-0.629,0.812-1.437,0.109-0.469,0.212-1.077-0.124-1.5-0.008-0.01-0.023-0.021-0.032-0.031,0.301-2.968-1.601-4.454-2.718-4.844h-0.032c-0.407-0.123-0.82-0.184-1.187-0.188h-0.031c-0.089,0-0.17-0.006-0.25,0-0.082-0.007-0.166,0-0.25,0-0.379,0-0.767,0.061-1.188,0.188h-0.031c-1.118,0.39-3.02,1.876-2.719,4.844-0.009,0.01-0.024,0.021-0.031,0.031-0.337,0.423-0.265,1.031-0.157,1.5,0.189,0.808,0.508,1.223,0.813,1.437,0.1,0.398,0.319,0.968,0.781,1.594v0.031c0.027,0.036,0.066,0.058,0.094,0.094,0.03,0.508,0.014,0.833,0,1-0.353,0.192-1.33,0.483-2.125,0.625-0.477,0.085-1.028,0.234-1.531,0.594-1.748-1.689-2.844-4.046-2.844-6.688,0-5.17,4.143-9.312,9.312-9.312zm-1.874,7.594s1.576,1.616,3.531,1.968c0,0-0.429-0.763-0.781-1.468,0,0,1.137,1.257,2.124,1.468,0,0,0.146-0.184,0.313-0.5-0.017,0.167-0.028,0.32-0.063,0.5,0,0,0.061-0.031,0.126-0.031,0.139,0,0.306,0.127,0.124,0.906-0.232,1.004-0.625,1.063-0.718,1.063,0,0-0.072,0.954-0.938,1.968v0.032c-0.673,0.685-1.342,0.994-2.031,0.968-0.857-0.035-1.539-0.614-1.875-0.968-0.883-1.023-0.938-2-0.938-2h-0.031c-0.094,0-0.486-0.06-0.719-1.063-0.181-0.779,0.017-0.906,0.157-0.906,0.064,0,0.125,0.031,0.125,0.031l0.344,1s-0.232-2.757,1.25-2.968zm3.687,6.906c0.003,0.275,0.013,0.525,0.063,0.656,0.074,0.198,0.513,0.388,1.031,0.562-0.752,0.737-1.835,1.219-3.031,1.219s-2.249-0.483-3-1.219c0.516-0.175,0.957-0.364,1.031-0.562,0.048-0.128,0.059-0.357,0.062-0.625,0.456,0.342,1.049,0.655,1.781,0.687,0.041,0.002,0.085,0,0.126,0,0.661,0,1.316-0.244,1.937-0.718z"/><text x="0" y="115" fill="#000000" font-size="5px" font-weight="bold" font-family="'Helvetica Neue', Helvetica, Arial-Unicode, Arial, Sans-serif">Created by Richard Slater</text><text x="0" y="120" fill="#000000" font-size="5px" font-weight="bold" font-family="'Helvetica Neue', Helvetica, Arial-Unicode, Arial, Sans-serif">from the Noun Project</text></svg>