<svg xmlns="http://www.w3.org/2000/svg" xmlns:xlink="http://www.w3.org/1999/xlink" version="1.1" x="0px" y="0px" viewBox="0 0 100 125" enable-background="new 0 0 100 100" xml:space="preserve"><path fill-rule="evenodd" clip-rule="evenodd" d="M85.355,14.645c-19.527-19.525-51.184-19.525-70.711,0  c-19.526,19.527-19.526,51.184,0,70.711c19.527,19.525,51.184,19.525,70.711,0C104.882,65.828,104.882,34.172,85.355,14.645z   M83.035,50.634c0,5.251-4.256,9.506-9.507,9.506H26.472c-5.251,0-9.507-4.255-9.507-9.506v-1.268c0-5.251,4.256-9.506,9.507-9.506  h47.057c5.251,0,9.507,4.255,9.507,9.506V50.634z"/><text x="0" y="115" fill="#000000" font-size="5px" font-weight="bold" font-family="'Helvetica Neue', Helvetica, Arial-Unicode, Arial, Sans-serif">Created by Mateo Zlatar</text><text x="0" y="120" fill="#000000" font-size="5px" font-weight="bold" font-family="'Helvetica Neue', Helvetica, Arial-Unicode, Arial, Sans-serif">from the Noun Project</text></svg>