<svg xmlns="http://www.w3.org/2000/svg" xmlns:xlink="http://www.w3.org/1999/xlink" version="1.1" x="0px" y="0px" viewBox="0 0 100 100" enable-background="new 0 0 100 100" xml:space="preserve"><path fill="#000000" d="M47.979,87.742c0.126-0.297,0.197-0.598,0.197-0.912c0-2.254-3.399-4.082-7.593-4.082  c-4.192,0-7.593,1.826-7.593,4.082c0,0.314,0.072,0.617,0.197,0.912H47.979z"></path><path fill="#000000" d="M60.626,54.616c-0.345,0-0.68-0.179-0.866-0.498l-1.928-3.32l-3.236,1.026  c-0.304,0.095-0.63,0.044-0.888-0.142c-0.257-0.185-0.41-0.48-0.415-0.797l-0.124-8.667c-0.008-0.552,0.434-1.006,0.985-1.014  c0.566-0.001,1.007,0.434,1.015,0.986l0.104,7.32l2.718-0.862c0.447-0.143,0.932,0.045,1.168,0.451l2.331,4.014  c0.277,0.478,0.114,1.089-0.363,1.366C60.969,54.572,60.797,54.616,60.626,54.616z"></path><path fill="#000000" d="M76.293,46.455c-0.027,0-0.055-0.001-0.083-0.003c-0.551-0.045-0.96-0.528-0.915-1.079  c0.462-5.611-2.573-9.326-2.604-9.362c-0.354-0.424-0.296-1.055,0.129-1.409c0.424-0.353,1.054-0.295,1.408,0.128  c0.146,0.176,3.589,4.389,3.062,10.807C77.246,46.06,76.809,46.455,76.293,46.455z"></path><path fill="#000000" d="M82.917,34.777c-0.269-1.071-1.363-1.723-2.427-1.452l-4.686,1.178l-6.488-9.433  c-0.316-0.461-0.812-0.768-1.367-0.846c-0.55-0.083-1.115,0.078-1.548,0.433l-6.818,5.587l-6.449,0.921  c-0.885,0.126-1.579,0.826-1.699,1.712l-1.085,8.026l-4.918,1.236c-1.071,0.269-1.722,1.356-1.452,2.427  c0.228,0.907,1.043,1.513,1.938,1.513c0.162,0,0.326-0.02,0.489-0.061l9.452-2.376c0.891,1.106,2.896,2.767,6.436,1.635  c2.451-0.783,3.936-2.99,4.674-4.429l14.497-3.645C82.536,36.936,83.187,35.849,82.917,34.777z M61.014,43.694  c-0.804,0.284-1.629,0.023-1.844-0.583c-0.214-0.606,0.263-1.328,1.067-1.612c0.803-0.284,1.628-0.024,1.842,0.583  C62.294,42.688,61.817,43.409,61.014,43.694z"></path><path fill="#000000" d="M81.582,51.615l-0.791-10.237c-0.027-0.357-0.245-0.673-0.568-0.827c-0.325-0.152-0.707-0.121-1,0.083  c-7.677,5.347-20.259,13.977-21.681,14.616c-0.312,0.075-0.575,0.298-0.696,0.605c-0.151,0.381-0.054,0.816,0.246,1.097l5.504,5.159  c-0.069,9.886-2.546,15.059-7.302,15.372h-7.117c-0.338,0-0.652,0.171-0.837,0.452c-0.185,0.283-0.215,0.641-0.079,0.949  l3.492,7.972c0.156,0.355,0.503,0.589,0.891,0.599c0,0,1.634,0.041,3.344,0.041c0.864,0,1.748-0.012,2.454-0.042  c1.532-0.067,6.734-0.612,9.327-4.798c1.561-2.518,2.466-4.951,2.989-6.846c0.646,2.44,1.203,6.104,0.607,10.553  c-0.038,0.285,0.049,0.574,0.238,0.791c0.19,0.217,0.465,0.342,0.753,0.342h23.938c0.553,0,1-0.448,1-1  C96.294,62.372,84.196,53.293,81.582,51.615z"></path><path fill="#000000" d="M52.794,86.775c-0.022,0-0.046-0.001-0.069-0.002l-14.418-0.984c-0.946,0.323-3.802,1.154-5.354,0.055  c-0.459-0.325-1.003-0.951-0.987-2.09c0.035-2.52,4.866-6.271,8.078-6.271c0.047,0,0.093,0.003,0.139,0.01l8.74,1.226  c0.547,0.077,0.929,0.582,0.852,1.129s-0.579,0.931-1.129,0.852l-8.666-1.215c-2.466,0.055-5.999,3.215-6.014,4.297  c-0.005,0.325,0.096,0.396,0.144,0.431c0.597,0.423,2.54,0.056,3.716-0.374c0.131-0.048,0.271-0.068,0.412-0.058l14.624,0.997  c0.551,0.038,0.967,0.516,0.93,1.066C53.755,86.371,53.315,86.775,52.794,86.775z"></path><path fill="#000000" d="M26.379,75.417L9.629,38.436c-0.706-1.559-2.542-2.25-4.103-1.544c-1.559,0.707-2.25,2.543-1.544,4.102  c0,0,4.694,14.566,6.796,19.207c0.792,1.748,2.401,4.703,4.099,7.707c-2.09,3.011-6.04,8.739-7.698,11.384  c-1.54,2.456-1.872,4.743-0.934,6.439c0.797,1.439,2.383,2.232,4.466,2.232h8.738c0.828,0,1.5-0.671,1.5-1.5s-0.672-1.5-1.5-1.5  h-8.738c-0.546,0-1.511-0.089-1.841-0.685c-0.289-0.523-0.219-1.689,0.85-3.394c1.414-2.255,4.637-6.951,6.807-10.088  c2.232,3.876,4.206,7.178,4.206,7.178c0.705,1.56,2.542,2.251,4.104,1.545C26.393,78.812,27.084,76.976,26.379,75.417z"></path></svg>