<svg xmlns="http://www.w3.org/2000/svg" xmlns:xlink="http://www.w3.org/1999/xlink" version="1.1" x="0px" y="0px" viewBox="0 0 100 100" enable-background="new 0 0 100 100" xml:space="preserve"><g><polygon points="26.389,50.643 50,44.347 73.611,50.643 73.611,52.777 79.167,52.777 79.167,41.667 20.833,41.667 20.833,52.777    26.389,52.777  "></polygon><path d="M70.833,91.667V59.724v-2.778v-0.001v-4.167L50,47.223l-20.833,5.555v4.167v0.001v2.778v31.943H37.5V59.724h8.333v31.943   h8.334V59.724H62.5v31.943H70.833z"></path><path d="M66.667,36.111c0-0.001,0-0.001,0-0.001c0-8.256-6.009-15.092-13.89-16.417v-3.721c0-0.384-0.311-0.694-0.694-0.694h-0.694   v-3.594c4.894,2.449,8.925-1.771,15.278,0.768V2.778C60.313,0.239,56.282,4.459,51.389,2.01V1.389C51.389,0.621,50.768,0,50,0   s-1.389,0.621-1.389,1.389v13.889h-0.694c-0.384,0-0.694,0.311-0.694,0.694v3.721c-7.881,1.325-13.89,8.161-13.89,16.417   c0,0,0,0,0,0.001v2.777h33.334V36.111z"></path><polygon points="26.389,94.444 20.833,100 79.167,100 73.611,94.444  "></polygon><path d="M73.611,55.556v36.111h1.15l0.813,0.813l5.556,5.556L83.095,100H100V55.556H73.611z M84.723,84.723h-5.556v-8.334h5.556   V84.723z M84.723,70.833h-5.556V62.5h5.556V70.833z M94.444,84.723h-5.556v-8.334h5.556V84.723z M94.444,70.833h-5.556V62.5h5.556   V70.833z"></path><path d="M25.238,91.667h1.15V55.556H0V100h16.905l1.964-1.964l5.556-5.556L25.238,91.667z M11.111,84.723H5.556v-8.334h5.556   V84.723z M11.111,70.833H5.556V62.5h5.556V70.833z M20.833,84.723h-5.556v-8.334h5.556V84.723z M20.833,70.833h-5.556V62.5h5.556   V70.833z"></path></g></svg>